<svg xmlns="http://www.w3.org/2000/svg" width="65" height="65" viewBox="0 0 65 65">
  <g id="Group_142" data-name="Group 142" transform="translate(-1350.999 1129.001)">
    <path id="Path_79" data-name="Path 79" d="M1394.4-1122.277h0a14.873,14.873,0,0,0-5.861,1.2h0a12.785,12.785,0,0,1-10.075,0h0a14.877,14.877,0,0,0-5.861-1.2h0a14.878,14.878,0,0,0-14.878,14.875v0h0a34.1,34.1,0,0,0,5.182,18.071l.422.672,4.88,21.475a4.087,4.087,0,0,0,3.986,3.18h0a4.086,4.086,0,0,0,4.034-3.415l3.362-20.165a3.967,3.967,0,0,1,3.91-3.316h0a3.969,3.969,0,0,1,3.915,3.316l3.362,20.165a4.086,4.086,0,0,0,4.03,3.415h0a4.086,4.086,0,0,0,3.985-3.18l4.881-21.475.421-.672a34.1,34.1,0,0,0,5.182-18.071h0a14.877,14.877,0,0,0-14.875-14.878Z" fill="#fc5185"/>
    <path id="Path_80" data-name="Path 80" d="M1398.2-1121.767c-6.6,22.431-24.454,32.573-34.1,36.534l4.1,18.051a4.087,4.087,0,0,0,4.893,3.077,4.088,4.088,0,0,0,3.124-3.311l3.362-20.165a3.97,3.97,0,0,1,4.566-3.264,3.969,3.969,0,0,1,3.263,3.264l3.362,20.165a4.086,4.086,0,0,0,4.706,3.357,4.084,4.084,0,0,0,3.31-3.123l4.879-21.474.421-.672a34.1,34.1,0,0,0,5.182-18.071,14.87,14.87,0,0,0-11.072-14.368Z" fill="#f797a1"/>
    <rect id="Rectangle_60" data-name="Rectangle 60" width="65" height="65" transform="translate(1350.999 -1129.001)" fill="none"/>
    <path id="Path_81" data-name="Path 81" d="M1364.448-1107.708h-2.242c0-6.046,4.259-8.493,6.5-8.943l.439,2.2-.215-1.1.224,1.1c-.19.041-4.706,1.064-4.706,6.747Z" fill="#f5f5f5"/>
    <path id="Path_82" data-name="Path 82" d="M1371.172-1116.673h2.241v2.241h-2.241v-2.241Z" fill="#f5f5f5"/>
  </g>
</svg>
