<svg xmlns="http://www.w3.org/2000/svg" width="48.88" height="58.202" viewBox="0 0 48.88 58.202">
  <g id="Group_145" data-name="Group 145" transform="translate(-1509.81 1122.345)">
    <path id="Path_95" data-name="Path 95" d="M1528.653-1121.252h0a13.531,13.531,0,0,0-5.324-1.093h0a13.519,13.519,0,0,0-13.519,13.519h0a34.029,34.029,0,0,0,5.172,18.032l.647,1.035,3.013,22.093a4.061,4.061,0,0,0,4.022,3.511h0a4.06,4.06,0,0,0,4.005-3.393l3.516-21.095a4.121,4.121,0,0,1,4.065-3.443h0a4.121,4.121,0,0,1,4.065,3.443l3.516,21.095a4.06,4.06,0,0,0,4.005,3.393h0a4.061,4.061,0,0,0,4.022-3.511l3.013-22.093.647-1.035a34.029,34.029,0,0,0,5.172-18.032h0a13.519,13.519,0,0,0-13.519-13.519h0a13.531,13.531,0,0,0-5.324,1.093h0a14.207,14.207,0,0,1-11.194,0Z" fill="#f5f5f5"/>
    <path id="Path_96" data-name="Path 96" d="M1551.707-1120.657c-7.417,17.65-23.982,27.866-35.772,33.147l2.707,19.844a4.059,4.059,0,0,0,4.56,3.486,4.06,4.06,0,0,0,3.471-3.37l3.515-21.095a4.123,4.123,0,0,1,4.742-3.389,4.123,4.123,0,0,1,3.389,3.389l3.515,21.095a4.061,4.061,0,0,0,4.66,3.354,4.059,4.059,0,0,0,3.371-3.47l3.006-22.093.647-1.035a34.029,34.029,0,0,0,5.172-18.032h0a13.513,13.513,0,0,0-6.983-11.831Z" fill="#d5d4d3"/>
    <path id="Path_99" data-name="Path 99" d="M1516.793-1107.216h-2.327c0-6.278,4.422-8.82,6.75-9.287l.456,2.281-.224-1.14.233,1.139c-.2.043-4.888,1.106-4.888,7.007Z" fill="#ebe9e9"/>
    <path id="Path_100" data-name="Path 100" d="M1523.776-1116.526h2.328v2.328h-2.328v-2.328Z" fill="#ebe9e9"/>
    <path id="Path_101" data-name="Path 101" d="M1530.155-1104.088l4.655-4.655,4.655,4.655-4.655,4.655-4.655-4.655Z" fill="#ff8eb0"/>
    <path id="Path_102" data-name="Path 102" d="M1546.145-1086.086a4.743,4.743,0,0,1-4.738-4.747,4.745,4.745,0,0,1,.5-2.12l.8-1.6-6.389-6.389,1.645-1.645,6.39,6.389a2.329,2.329,0,0,1,.436,2.687l-.8,1.6a2.415,2.415,0,0,0,1.083,3.239,2.416,2.416,0,0,0,1.973.081l3.628-1.458.865,2.161-3.629,1.451a4.728,4.728,0,0,1-1.762.345Z" fill="#ff8eb0"/>
    <path id="Path_103" data-name="Path 103" d="M1525.5-1121l10.474,11.094-6.983,6.983-3.491-2.948V-1121Z" fill="#fc5185"/>
  </g>
</svg>
