<svg xmlns="http://www.w3.org/2000/svg" width="64.158" height="56.916" viewBox="0 0 64.158 56.916">
  <g id="icon" transform="translate(-139 -249)">
    <path id="Path_5630" data-name="Path 5630" d="M178.979,266.822a.842.842,0,0,1,1.632.212l1.345,15.719,2.52-9.082a.842.842,0,0,1,1.632.036l1.4,6.087,2.4-10.065a.842.842,0,0,1,1.652.078l1.788,12.746.8-2.59a.843.843,0,0,1,.8-.593h18.96v-4.341a7.256,7.256,0,0,0-7.257-7.255H195.136v-11.52A7.255,7.255,0,0,0,187.88,249h-4.852a7.257,7.257,0,0,0-7.257,7.256v11.52h-11.52A7.256,7.256,0,0,0,157,275.031v4.433h17.447Zm0,0" transform="translate(-14.536)" fill="#05e2e9"/>
    <path id="Path_5631" data-name="Path 5631" d="M194.314,379.156a.842.842,0,0,1-1.638-.132l-1.692-12.06-2.195,9.221a.841.841,0,0,1-.819.647h0a.84.84,0,0,1-.817-.653l-1.465-6.357L182.8,380.217a.842.842,0,0,1-.81.617c-.026,0-.053,0-.079,0a.843.843,0,0,1-.761-.767l-1.416-16.54-3.433,9.569a.841.841,0,0,1-.793.557H157.582a7.256,7.256,0,0,0,7.143,5.992h11.519v11.52a7.258,7.258,0,0,0,7.257,7.257h4.852a7.256,7.256,0,0,0,7.256-7.257v-11.52h11.52a7.256,7.256,0,0,0,7.161-6.084H196.046Zm0,0" transform="translate(-15.009 -92.503)" fill="#05e2e9"/>
    <path id="Path_5632" data-name="Path 5632" d="M202.316,351.894h-21.9a.842.842,0,0,0-.8.593l-.8,2.59-1.788-12.746a.842.842,0,0,0-1.652-.078l-2.4,10.065-1.4-6.087a.842.842,0,0,0-1.632-.036l-2.52,9.082-1.345-15.719a.842.842,0,0,0-1.632-.212l-4.535,12.641H139.842a.842.842,0,0,0,0,1.684H160.5a.842.842,0,0,0,.793-.557l3.433-9.569,1.416,16.54a.843.843,0,0,0,.761.767c.026,0,.053,0,.078,0a.842.842,0,0,0,.811-.617l2.883-10.4,1.466,6.357a.841.841,0,0,0,.817.653h0a.842.842,0,0,0,.819-.647l2.195-9.221,1.692,12.06a.842.842,0,0,0,1.638.132l1.733-5.6h21.278a.842.842,0,1,0,0-1.683Zm0,0" transform="translate(0 -72.522)" fill="#f7f1e6"/>
  </g>
</svg>
