<svg xmlns="http://www.w3.org/2000/svg" width="57.591" height="57.593" viewBox="0 0 57.591 57.593">
  <g id="appointment" transform="translate(-0.006)">
    <path id="Path_5634" data-name="Path 5634" d="M1.926,24A22.077,22.077,0,0,1,39.586,8.358.96.96,0,0,0,40.941,7,24,24,0,1,0,7.065,40.994.96.96,0,0,0,8.42,39.634,21.93,21.93,0,0,1,1.926,24Z" fill="#fc5185"/>
    <path id="Path_5635" data-name="Path 5635" d="M119.146,75.365a5.462,5.462,0,0,0-3.725-1.949c-.163-.015-.326-.022-.49-.022h-6.8a5.5,5.5,0,0,0-5.5,4.728,28.117,28.117,0,0,1-1.534,6.148,5.5,5.5,0,0,0,1.24,5.795l2.357,2.352a35.32,35.32,0,0,1-12.252,12.226l-2.362-2.357a5.52,5.52,0,0,0-5.8-1.235,28.237,28.237,0,0,1-6.173,1.534,5.49,5.49,0,0,0-4.727,5.558v6.777a5.5,5.5,0,0,0,5.472,5.51h.033c.163,0,.327-.008.5-.024a46.108,46.108,0,0,0,19.986-7.093,45.446,45.446,0,0,0,13.9-13.87A45.938,45.938,0,0,0,120.4,79.377,5.443,5.443,0,0,0,119.146,75.365Z" transform="translate(-62.825 -62.835)" fill="#05e2e9"/>
    <path id="Path_5636" data-name="Path 5636" d="M75.6,66.9a2.95,2.95,0,0,1,.435,2.5,19.314,19.314,0,0,0-.81,4.817c-.009.2-.191,5.04,2.1,7.475a1.514,1.514,0,0,0,1.1.475,1.5,1.5,0,0,0,.361-.044,1.525,1.525,0,0,0,1.1-1.072c1.19-4.28,3.3-8.614,5.019-8.614s3.829,4.334,5.019,8.615a1.527,1.527,0,0,0,1.1,1.071,1.506,1.506,0,0,0,1.461-.431c2.286-2.435,2.1-7.271,2.1-7.434a19.378,19.378,0,0,0-.81-4.859,2.951,2.951,0,0,1,.436-2.5c.094-.135.183-.269.272-.405a12.564,12.564,0,0,0,1.94-6.819V58.5c0-4.058-4.231-5.13-6.468-5.13a7.524,7.524,0,0,0-5.05,2.014,7.522,7.522,0,0,0-5.05-2.014c-2.237,0-6.468,1.072-6.468,5.13v1.178A12.561,12.561,0,0,0,75.331,66.5C75.418,66.631,75.508,66.767,75.6,66.9Z" transform="translate(-62.826 -45.691)" fill="#fc5185"/>
  </g>
</svg>
