<svg xmlns="http://www.w3.org/2000/svg" xmlns:xlink="http://www.w3.org/1999/xlink" width="52.541" height="57.593" viewBox="0 0 52.541 57.593">
  <defs>
    <clipPath id="clip-path">
      <rect id="Rectangle_286" data-name="Rectangle 286" width="7.762" height="5.944" fill="#fed097"/>
    </clipPath>
  </defs>
  <g id="icon" transform="translate(-72 -32.006)">
    <path id="Path_5583" data-name="Path 5583" d="M209.094,32.006h-4.042v5.052H200V41.1h5.052v5.052h4.042V41.1h5.052V37.058h-5.052Z" transform="translate(-111.833)" fill="#fc5185"/>
    <path id="Path_5584" data-name="Path 5584" d="M366.062,76.042v28.291H370.1V72H360v4.042Z" transform="translate(-251.625 -34.943)" fill="#05e2e9"/>
    <path id="Path_5585" data-name="Path 5585" d="M104.333,122.521V120.5H76.042V76.042H82.1V72H72v52.541h34.354A2.027,2.027,0,0,1,104.333,122.521Z" transform="translate(0 -34.943)" fill="#05e2e9"/>
    <g id="Group_1817" data-name="Group 1817" transform="translate(76.042 47.365)">
      <path id="Path_5586" data-name="Path 5586" d="M142.4,364.8v5.775H104V364.8a3.7,3.7,0,0,1,2.359-3.456l8.1-3.184,6.319,6.944,1.983-4.04v-.008l.441-.9.449.9,1.984,4.048,6.31-6.944,8.1,3.184A3.718,3.718,0,0,1,142.4,364.8" transform="translate(-104 -332.329)" fill="#e2e2e2"/>
      <path id="Path_5587" data-name="Path 5587" d="M222.4,325.777h.008V322.49a17.706,17.706,0,0,1-1.475,1.929l-.784.864a3.832,3.832,0,0,1-2.808,1.24h-1.2a3.827,3.827,0,0,1-2.808-1.24l-.784-.864a17.39,17.39,0,0,1-1.489-1.95v3.3l.013.006,4.935,2.784.728.408.728-.408Z" transform="translate(-197.543 -301.142)" fill="#fed097"/>
      <g id="Group_1813" data-name="Group 1813" transform="translate(17.108 21.365)" opacity="0.1">
        <g id="Group_1812" data-name="Group 1812">
          <g id="Group_1811" data-name="Group 1811" clip-path="url(#clip-path)">
            <path id="Path_5588" data-name="Path 5588" d="M239.518,326.491l-.014,0-.025-.008c-.008,0-.017,0-.028-.009l3.016,2.24,4.737-2.672h0l0-3.271c-.008.012-1.125,1.475-1.475,1.911l-.784.865a3.832,3.832,0,0,1-2.808,1.24h-1.2a3.418,3.418,0,0,1-.713-.076,3.713,3.713,0,0,1-.715-.216" transform="translate(-239.451 -322.767)" fill="#fed097"/>
          </g>
        </g>
      </g>
      <g id="Group_1814" data-name="Group 1814" transform="translate(10.001 12.199)">
        <path id="Path_5589" data-name="Path 5589" d="M186.768,252.649c.125,1.436-.572,2.67-1.556,2.755s-1.885-1.009-2.012-2.444.572-2.668,1.557-2.755,1.886,1.008,2.011,2.444" transform="translate(-183.186 -250.2)" fill="#fed097"/>
        <path id="Path_5590" data-name="Path 5590" d="M303.98,252.967c-.125,1.436-1.026,2.53-2.011,2.444s-1.683-1.319-1.556-2.755,1.026-2.531,2.011-2.445,1.682,1.319,1.556,2.756" transform="translate(-285.594 -250.205)" fill="#fed097"/>
      </g>
      <path id="Path_5591" data-name="Path 5591" d="M206.844,181.981a15.693,15.693,0,0,1-3.967,8.622l-.784.864a3.829,3.829,0,0,1-2.808,1.241h-1.2a3.825,3.825,0,0,1-2.808-1.241l-.784-.864a15.761,15.761,0,0,1-3.968-8.622,31,31,0,0,1,0-5.759,8.272,8.272,0,0,1,16.318,0,31.013,31.013,0,0,1,0,5.759" transform="translate(-179.483 -167.327)" fill="#fedcb1"/>
      <path id="Path_5592" data-name="Path 5592" d="M182.322,157.614s.056-5.386,7.886-3.665a13.555,13.555,0,0,1,6.385,4.832s2.345,3.406,1.07,6.271a6.908,6.908,0,0,0-.808,2.85s-.434-1.815-.694-3.328a7.08,7.08,0,0,0-1.6-3.428l-.025-.03a5.483,5.483,0,0,0-5.485-1.787,9.852,9.852,0,0,0-3.245,1.585,3.134,3.134,0,0,0-4.875,1.643,20.611,20.611,0,0,0-.617,5.014s-4.49-9.4,2.006-9.956" transform="translate(-169.356 -153.61)" fill="#122029"/>
      <path id="Path_5593" data-name="Path 5593" d="M303.319,348.457a6.68,6.68,0,0,0-.3-1.887,2.868,2.868,0,0,0-2.144-1.56l-2.576-.52v.528h-.008l-.369.208,2.824.576a2.05,2.05,0,0,1,1.552,1.127,2.021,2.021,0,0,1,.217,1.233l-.017.208a15.045,15.045,0,0,0-4.383,5.7,2.047,2.047,0,0,0,.041,1.792,1.235,1.235,0,0,0,.887.552l.08-.8a.462.462,0,0,1-.3-.2,1.384,1.384,0,0,1,.056-1.081,11.889,11.889,0,0,1,1.92-3.08,1.715,1.715,0,0,1,2.264.671,12.225,12.225,0,0,1-.2,3.68c-.153.5-.361.824-.592.912a.39.39,0,0,1-.353-.016l-.2.351-.208.346a1.214,1.214,0,0,0,.608.16,1.1,1.1,0,0,0,.433-.088,2.044,2.044,0,0,0,1.087-1.432,15.84,15.84,0,0,0-.313-7.384m-1.062,2.072a2.338,2.338,0,0,0-.738-.1c.346-.377.728-.76,1.161-1.151.12.559.208,1.1.272,1.6a2.372,2.372,0,0,0-.7-.354" transform="translate(-273.428 -320.382)" fill="#acb3ba"/>
      <g id="Group_1815" data-name="Group 1815" transform="translate(25.464 35.076)">
        <path id="Path_5594" data-name="Path 5594" d="M306.469,432.026a.6.6,0,0,1-.7.468c-.32-.063-.092-1.229.229-1.165a.6.6,0,0,1,.469.7" transform="translate(-305.617 -431.326)" fill="#f8b64c"/>
        <path id="Path_5595" data-name="Path 5595" d="M322.259,437.635a.594.594,0,0,0,.292.787c.3.137.793-.942.5-1.08a.6.6,0,0,0-.787.293" transform="translate(-320.11 -436.535)" fill="#f8b64c"/>
      </g>
      <path id="Path_5596" data-name="Path 5596" d="M164.8,345.012l-.013-.006v-.521l-1.729.356a6.206,6.206,0,0,0-4.432,8.576l.733-.322a5.406,5.406,0,0,1,3.86-7.47l1.954-.4Z" transform="translate(-151.269 -320.376)" fill="#acb3ba"/>
      <g id="Group_1816" data-name="Group 1816" transform="translate(10.455 24.628)">
        <path id="Path_5597" data-name="Path 5597" d="M264.743,349.809l-5.9,7.743L256,351.8l.728-.408,4.935-2.784h.008l.008-.008Z" transform="translate(-247.257 -348.601)" fill="#05e2e9"/>
        <path id="Path_5598" data-name="Path 5598" d="M186.777,349.809l5.912,7.743,2.831-5.751-.728-.408-4.935-2.784-.016-.008Z" transform="translate(-186.777 -348.601)" fill="#05e2e9"/>
      </g>
      <path id="Path_5599" data-name="Path 5599" d="M233.586,384.357l1.615-3.68-.7-1.024-.51-.768,1.982-4.047.441-.9.449.9v.008l1.984,4.039-.52.761-.7,1.031,1.625,3.68Z" transform="translate(-217.219 -346.107)" fill="#00b1b7"/>
      <path id="Path_5600" data-name="Path 5600" d="M241.672,378.886l-.52.761-1.9-3.9-1.921,3.9-.51-.768,1.982-4.047.441-.9.449.9v.008Z" transform="translate(-220.041 -346.107)" fill="#00b1b7"/>
      <path id="Path_5601" data-name="Path 5601" d="M159.152,412.592a1.812,1.812,0,1,1-1.813-1.811,1.813,1.813,0,0,1,1.813,1.811" transform="translate(-149.02 -378.3)" fill="#ff7058"/>
      <path id="Path_5602" data-name="Path 5602" d="M162.668,416.7a1.217,1.217,0,1,1-1.216-1.217,1.216,1.216,0,0,1,1.216,1.217" transform="translate(-153.132 -382.412)" fill="#f2f2f2"/>
      <path id="Path_5603" data-name="Path 5603" d="M164.827,419.227a.853.853,0,1,1-.851-.852.852.852,0,0,1,.851.852" transform="translate(-155.655 -384.935)" fill="#acb3ba"/>
    </g>
    <rect id="Rectangle_287" data-name="Rectangle 287" width="20.307" height="20.307" transform="translate(104.234 69.292)" fill="#fc5185"/>
    <g id="Group_1818" data-name="Group 1818" transform="translate(107.5 72.558)">
      <path id="Path_5604" data-name="Path 5604" d="M359.964,353.076a6.888,6.888,0,1,0,6.888,6.888,6.888,6.888,0,0,0-6.888-6.888Zm0,12.053a5.166,5.166,0,1,1,5.166-5.166,5.171,5.171,0,0,1-5.166,5.166Zm4.3-5.166a.86.86,0,0,1-.861.861h-3.444a.861.861,0,0,1-.861-.861V356.52a.861.861,0,0,1,1.722,0V359.1h2.583a.861.861,0,0,1,.861.861Zm0,0" transform="translate(-353.076 -353.076)" fill="#fff"/>
    </g>
  </g>
</svg>
