<svg xmlns="http://www.w3.org/2000/svg" width="59.367" height="63.947" viewBox="0 0 59.367 63.947">
  <g id="Group_148" data-name="Group 148" transform="translate(-1293.918 1129)">
    <path id="Path_119" data-name="Path 119" d="M1338.51-1094.191a4.8,4.8,0,0,1-.476-2.068,4.784,4.784,0,0,1,.38-1.855,16.287,16.287,0,0,1-12.863-6.464,16.279,16.279,0,0,1-2.72-14.135,10.168,10.168,0,0,1-8.475-.236c-7.911-3.919-14.639-4.255-17.995-.9-1.871,1.876-2.619,4.832-2.163,8.556a32.943,32.943,0,0,0,4.391,11.911c.128.232.264.464.4.7a4.75,4.75,0,0,1,.2,4.5,21.585,21.585,0,0,0-2.144,9.448,30.029,30.029,0,0,0,2.472,11.471,22.868,22.868,0,0,0,5.5,8.095c2.36-9.5,7.443-9.467,12.811-9.431.676,0,1.368,0,2.04,0,4.079-.028,7.991-.056,10.671,4.1a17.522,17.522,0,0,1,2.144,5.335,22.806,22.806,0,0,0,5.5-8.095,30.029,30.029,0,0,0,2.472-11.471A21.642,21.642,0,0,0,1338.51-1094.191Z" fill="#fc5185"/>
    <path id="Path_120" data-name="Path 120" d="M1338.519-1129h-.033c-.048,0-.095,0-.145,0-.009,0-.018.016-.027.016a14.6,14.6,0,0,0-13.016,8.369,14.608,14.608,0,0,0,1.811,15.369,14.619,14.619,0,0,0,13.069,5.385,14.616,14.616,0,0,0,11.518-8.195,14.62,14.62,0,0,0-.8-14.113,14.62,14.62,0,0,0-12.373-6.834Zm5.559,15.666h-4.947v4.889a.824.824,0,0,1-1.649,0v-4.889H1332.4a.825.825,0,0,1,0-1.649h5.085v-5.143a.824.824,0,1,1,1.649,0v5.143h4.947a.825.825,0,0,1,0,1.649Zm0,0" fill="#f5f5f5"/>
    <path id="Path_121" data-name="Path 121" d="M1353.285-1129v63.947h-21.606q-.486-2.886-1.14-5.459c-2.68-4.152-6.592-4.124-10.671-4.1-.672,0-1.364,0-2.04,0-5.368-.036-10.451-.072-12.811,9.431a22.868,22.868,0,0,1-5.5-8.095,30.029,30.029,0,0,1-2.472-11.471,21.585,21.585,0,0,1,2.144-9.448,4.75,4.75,0,0,0-.2-4.5c-.14-.232-.276-.464-.4-.7l-4.671.276V-1129Z" fill="none"/>
    <path id="Path_122" data-name="Path 122" d="M1330.539-1070.512c-2.68-4.152-6.592-4.124-10.671-4.1-.672,0-1.364,0-2.04,0-5.368-.036-10.451-.072-12.811,9.431a22.868,22.868,0,0,1-5.5-8.095,30.029,30.029,0,0,1-2.472-11.471,21.585,21.585,0,0,1,2.144-9.448,4.75,4.75,0,0,0-.2-4.5c-.14-.232-.276-.464-.4-.7l.3-.016S1322.871-1100.834,1330.539-1070.512Z" fill="#f797a1"/>
  </g>
</svg>
