<svg xmlns="http://www.w3.org/2000/svg" width="57.029" height="57.028" viewBox="0 0 57.029 57.028">
  <g id="Group_146" data-name="Group 146" transform="translate(-1584 1120.85)">
    <path id="Path_104" data-name="Path 104" d="M1639.362-1097.171a5.726,5.726,0,0,0-8.1,0,5.67,5.67,0,0,0-.534.614l-.79,1.054h-7.921a13.441,13.441,0,0,0-19.01,0h-7.92a5.727,5.727,0,0,0-7.683-2.562,5.821,5.821,0,0,0-1.017.651L1584-1095.5v31.682h57.029V-1095.5l-1.667-1.667Z" fill="#f797a1"/>
    <path id="Path_105" data-name="Path 105" d="M1584-1068.9v5.078h57.029V-1095.5l-.091-.09c-16.489,17.515-42.893,24-56.938,26.694Z" fill="#fc5185"/>
    <path id="Path_106" data-name="Path 106" d="M1605.175-1119.768h0a10.243,10.243,0,0,0-4.594-1.082h0a10.251,10.251,0,0,0-10.244,10.252h0a25.887,25.887,0,0,0,3.691,13.324l1.061,1.77,4.19,22.349a3.676,3.676,0,0,0,3.61,3h0a3.673,3.673,0,0,0,3.644-3.268l2.455-22.1a3.538,3.538,0,0,1,3.526-3.149h0a3.539,3.539,0,0,1,3.519,3.149l2.455,22.1a3.672,3.672,0,0,0,3.65,3.268h0a3.676,3.676,0,0,0,3.61-3l4.192-22.349,1.061-1.77a25.886,25.886,0,0,0,3.691-13.324h0a10.253,10.253,0,0,0-10.252-10.252h0a10.266,10.266,0,0,0-4.586,1.082h0a16.407,16.407,0,0,1-14.679,0Z" fill="#f5f5f5"/>
    <path id="Path_107" data-name="Path 107" d="M1595.664-1106.21c-1.537-6.148,1.655-8.932,3.558-9.547l.974,3.01-.486-1.508.516,1.5c-.275.1-2.648,1.129-1.487,5.775l-3.075.773Z" fill="#ebe9e9"/>
    <path id="Path_108" data-name="Path 108" d="M1599.279-1073.155a3.675,3.675,0,0,0,4.288,2.934,3.676,3.676,0,0,0,2.974-3.205l1.62-14.587a77.47,77.47,0,0,1-10.7,5.182l1.814,9.676Z" fill="#d5d4d3"/>
    <path id="Path_109" data-name="Path 109" d="M1616.254-1093.529l2.234,20.1a3.673,3.673,0,0,0,4.057,3.244,3.675,3.675,0,0,0,3.2-2.973l4.19-22.349,1.061-1.77a25.886,25.886,0,0,0,3.691-13.324,10.157,10.157,0,0,0-1.109-4.625,59.423,59.423,0,0,1-17.329,21.694Z" fill="#d5d4d3"/>
  </g>
</svg>
