<svg xmlns="http://www.w3.org/2000/svg" width="70" height="57.486" viewBox="0 0 70 57.486">
  <g id="Group_147" data-name="Group 147" transform="translate(-1703 1121.983)">
    <path id="Path_110" data-name="Path 110" d="M1760.642-1093.558a6.323,6.323,0,0,0-7.391,3.251h-5.273a7.738,7.738,0,0,1-4.874-1.728l-.163-.131a7.742,7.742,0,0,0-9.827.065h0a7.742,7.742,0,0,1-4.954,1.794h-5.411a6.323,6.323,0,0,0-7.391-3.251l-11.38,3.251v25.81h68.044v-25.81l-11.38-3.251Z" fill="#fc5185"/>
    <path id="Path_111" data-name="Path 111" d="M1703.978-1073.91v9.413h68.044v-25.81l-6.929-1.98c-16.577,12.682-46.074,16.723-61.115,18.377Z" fill="#f797a1"/>
    <path id="Path_112" data-name="Path 112" d="M1731.624-1115.329h0a9.7,9.7,0,0,0-3.83-.787h0a9.737,9.737,0,0,0-9.738,9.737h0a28.372,28.372,0,0,0,2.992,12.67l1.7,3.4,2.017,18.145a3.338,3.338,0,0,0,3.318,2.972h0a3.341,3.341,0,0,0,3.3-2.845l2.57-17.137a4.089,4.089,0,0,1,4.042-3.481h0a4.089,4.089,0,0,1,4.042,3.481l2.57,17.137a3.341,3.341,0,0,0,3.3,2.845h0a3.338,3.338,0,0,0,3.318-2.972l2.017-18.145,1.7-3.4a28.372,28.372,0,0,0,2.992-12.67h0a9.737,9.737,0,0,0-9.738-9.737h0a9.712,9.712,0,0,0-3.833.787h0a16.2,16.2,0,0,1-12.749,0Z" fill="#f5f5f5"/>
    <path id="Path_113" data-name="Path 113" d="M1753.016-1114.841c-6,15.97-20.647,25.224-29.7,29.6l1.454,13.078a3.34,3.34,0,0,0,3.688,2.951,3.341,3.341,0,0,0,2.934-2.824l2.57-17.138a4.087,4.087,0,0,1,4.652-3.431,4.088,4.088,0,0,1,3.432,3.431l2.57,17.138a3.339,3.339,0,0,0,3.8,2.807,3.339,3.339,0,0,0,2.823-2.934l2.017-18.145,1.7-3.4a28.372,28.372,0,0,0,2.992-12.67h0a9.724,9.724,0,0,0-4.928-8.462Z" fill="#d5d4d3"/>
    <path id="Path_114" data-name="Path 114" d="M1723.922-1102.038h-2.346v-1.637a9.058,9.058,0,0,1,4.041-7.552l1.3,1.952a6.718,6.718,0,0,0-3,5.6v1.637Z" fill="#ebe9e9"/>
    <path id="Path_115" data-name="Path 115" d="M1772.356-1093.872l-11.051-3.152a1.176,1.176,0,0,1-.85-1.426l0,0a31.966,31.966,0,0,0,1.006-7.926,13.257,13.257,0,0,0-13.258-13.256,13.253,13.253,0,0,0-5.216,1.07,12.7,12.7,0,0,1-9.971,0,13.257,13.257,0,0,0-17.409,6.961,13.254,13.254,0,0,0-1.072,5.225,31.933,31.933,0,0,0,1.006,7.929,1.173,1.173,0,0,1-.844,1.428h0l-.3.082-10.747,3.067-.644-2.255,10-2.861a34.214,34.214,0,0,1-.813-7.391,15.6,15.6,0,0,1,15.6-15.6,15.61,15.61,0,0,1,6.139,1.26,10.358,10.358,0,0,0,8.13,0,15.6,15.6,0,0,1,20.484,8.2,15.606,15.606,0,0,1,1.26,6.139,34.2,34.2,0,0,1-.813,7.4l10,2.859-.644,2.251Z" fill="#fc5185"/>
    <path id="Path_116" data-name="Path 116" d="M1735.2-1096.084l-6.636-13.273h19.909l-6.636,13.273Z" fill="#ff8a8b"/>
    <path id="Path_117" data-name="Path 117" d="M1742.986-1109.125l-1.659,8.3-2.3-.46,1.659-8.3,2.3.46Z" fill="#f7bfc7"/>
    <path id="Path_118" data-name="Path 118" d="M1736.351-1109.584l1.659,8.3-2.3.46-1.659-8.3,2.3-.46Z" fill="#f7bfc7"/>
  </g>
</svg>
